:SAMPLES-PER-SECOND 30
:FULLY-SPECIFIED
:DEGREES
18
root  -24.25577659 38.65666727 21.68506712 5.09596014 1.167598844 -0.3236662149
lowerback  10.95170021 2.331650019 2.529620171
upperback  2.977930069 3.486500025 3.306619883
thorax  -3.081619978 1.71863997 1.546830058
lowerneck  -14.72949982 7.193069935 -2.18434
upperneck  17.41880035 11.60370064 -5.852089882
head  8.075309753 4.800330162 -0.2653320432
lclavicle  0 -5.34481991e-014 2.981770104e-014
lhumerus  -35.7478981 9.759599686 83.19930267
lradius  0.003583191894 6.643666666e-007 30.73019981
lwrist  -1.645157397e-007 -3.533851896e-007 -3.292309761
lhand  -5.505032044e-031 -15.8135004 33.60620117
lfingers  90 7.125020027 -90
lthumb  93.41605384 18.01962653 79.07819387
rclavicle  0 -5.34481991e-014 2.981770104e-014
rhumerus  -35.04389954 -19.40819931 -70.53649902
rradius  -1.296506525e-006 2.359789448e-007 39.51010132
rwrist  -2.281664457e-008 -8.593936229e-009 12.81540012
rhand  -1.345748685e-031 10.2737999 9.996669769
rfingers  -90 -7.125020027 -90
rthumb  -72.52445805 -22.91766803 -51.04506765
rfemur  -14.50750828 -3.015900612 25.81000137
rtibia  9.670418422e-007 1.119611625e-006 39.16881943
rfoot  2.556521167e-006 -22.09050941 -6.583460808
rtoes  2.336001174 19.8686595 -96.84438506
lfemur  -32.57922363 -1.263045669 -20.11238861
ltibia  -3.641206786e-005 2.004581745e-007 22.49664497
lfoot  -5.693161143e-007 -5.695311546 -0.7739198208
ltoes  -5.298979543 -19.31302686 -105.6655569
19
root  -24.21955499 38.66800023 21.96484513 5.039559841 0.7985176444 -0.2524377406
lowerback  10.76690006 2.480750084 2.319319963
upperback  2.938529968 3.650170088 3.191430092
thorax  -3.028520107 1.801200032 1.529809952
lowerneck  -14.82219982 7.171050072 -2.295340061
upperneck  17.63809967 11.58980083 -5.688570023
head  8.147410393 4.789959908 -0.1896429211
lclavicle  0 -5.34481991e-014 2.981770104e-014
lhumerus  -36.19739914 10.56190014 82.67569733
lradius  0.003583191894 6.643666666e-007 30.16539764
lwrist  -1.645157397e-007 -3.533851896e-007 -3.273469925
lhand  -5.505032044e-031 -15.8135004 33.60620117
lfingers  90 7.125020027 -90
lthumb  93.41605384 18.01962653 79.07819387
rclavicle  0 -5.34481991e-014 2.981770104e-014
rhumerus  -34.95420074 -19.22290039 -70.58930206
rradius  -1.296506525e-006 2.359789448e-007 39.7989006
rwrist  -2.281664457e-008 -8.593936229e-009 12.59899998
rhand  -1.345748685e-031 10.2737999 9.996669769
rfingers  -90 -7.125020027 -90
rthumb  -72.52445805 -22.91766803 -51.04506765
rfemur  -13.6911087 -3.022210598 25.57100296
rtibia  9.670418422e-007 1.119611625e-006 38.64961624
rfoot  2.556521167e-006 -22.1768055 -6.215610027
rtoes  2.336001174 19.8686595 -96.84438506
lfemur  -31.92172241 -1.706795454 -19.99318886
ltibia  -3.641206786e-005 2.004581745e-007 20.67994308
lfoot  -5.693161143e-007 -5.371632099 -0.508547008
ltoes  -5.298979543 -19.31302686 -105.6655569
20
root  -24.19466484 38.67444316 22.2311125 4.982480049 0.3919573128 -0.4816302061
lowerback  10.66940022 2.624279976 2.369430065
upperback  2.782380104 3.844710112 3.106040001
thorax  -3.130680084 1.896100044 1.387969971
lowerneck  -14.44989967 7.168590069 -2.085609913
upperneck  17.68320084 11.52670097 -5.692920208
head  8.106550217 4.781169891 -0.2443439513
lclavicle  0 -5.34481991e-014 2.981770104e-014
lhumerus  -36.72600174 11.35560036 81.96089935
lradius  0.003583191894 6.643666666e-007 29.5428009
lwrist  -1.645157397e-007 -3.533851896e-007 -3.283069849
lhand  -5.505032044e-031 -15.8135004 33.60620117
lfingers  90 7.125020027 -90
lthumb  93.41605384 18.01962653 79.07819387
rclavicle  0 -5.34481991e-014 2.981770104e-014
rhumerus  -35.01390076 -19.10590172 -70.67559814
rradius  -1.296506525e-006 2.359789448e-007 39.99499893
rwrist  -2.281664457e-008 -8.593936229e-009 12.52029991
rhand  -1.345748685e-031 10.2737999 9.996669769
rfingers  -90 -7.125020027 -90
rthumb  -72.52445805 -22.91766803 -51.04506765
rfemur  -12.92900562 -2.812859297 25.70999908
rtibia  9.670418422e-007 1.119611625e-006 38.11761475
rfoot  2.556521167e-006 -22.20140839 -5.936041832
rtoes  2.336001174 19.8686595 -96.84438506
lfemur  -31.43362236 -2.055114508 -19.52308655
ltibia  -3.641206786e-005 2.004581745e-007 19.21844673
lfoot  -5.693161143e-007 -5.094733715 -0.4548461735
ltoes  -5.298979543 -19.31302686 -105.6655569
21
root  -24.1697777 38.67399861 22.5042223 4.945330143 -0.04280917346 -0.9421652555
lowerback  10.4630003 2.778800011 2.680700064
upperback  2.701819897 4.074230194 3.052920103
thorax  -3.077330112 2.008339882 1.137770057
lowerneck  -14.35630035 7.174640179 -2.013420105
upperneck  17.76919937 11.47480011 -5.47137022
head  8.105719566 4.781770229 -0.1924519092
lclavicle  0 -5.34481991e-014 2.981770104e-014
lhumerus  -37.11040115 11.83360004 81.3914032
lradius  0.003583191894 6.643666666e-007 29.11720276
lwrist  -1.645157397e-007 -3.533851896e-007 -3.001699924
lhand  -5.505032044e-031 -15.8135004 33.60620117
lfingers  90 7.125020027 -90
lthumb  93.41605384 18.01962653 79.07819387
rclavicle  0 -5.34481991e-014 2.981770104e-014
rhumerus  -35.02370071 -19.05799866 -70.8266983
rradius  -1.296506525e-006 2.359789448e-007 40.22029877
rwrist  -2.281664457e-008 -8.593936229e-009 12.46090031
rhand  -1.345748685e-031 10.2737999 9.996669769
rfingers  -90 -7.125020027 -90
rthumb  -72.52445805 -22.91766803 -51.04506765
rfemur  -12.17120457 -2.424189568 26.11900139
rtibia  9.670418422e-007 1.119611625e-006 37.5703125
rfoot  2.556521167e-006 -22.19190598 -5.854381084
rtoes  2.336001174 19.8686595 -96.84438506
lfemur  -31.04521942 -2.262176037 -18.85108948
ltibia  -3.641206786e-005 2.004581745e-007 18.10573006
lfoot  -5.693161143e-007 -4.97494173 -0.4779248536
ltoes  -5.298979543 -19.31302686 -105.6655569
22
root  -24.14088963 38.66599977 22.79000019 4.884549618 -0.4068261981 -1.30862999
lowerback  10.35560036 2.928800344 2.848400116
upperback  2.561069965 4.291259766 3.040280104
thorax  -3.152040005 2.113519907 1.005239964
lowerneck  -14.52690029 7.146309853 -2.134190083
upperneck  18.16729927 11.43379974 -5.12762022
head  8.238430023 4.766580105 -0.05352361128
lclavicle  0 -5.34481991e-014 2.981770104e-014
lhumerus  -37.58679962 12.53800011 80.86540222
lradius  0.003583191894 6.643666666e-007 28.5748024
lwrist  -1.645157397e-007 -3.533851896e-007 -3.001539469
lhand  -5.505032044e-031 -15.8135004 33.60620117
lfingers  90 7.125020027 -90
lthumb  93.41605384 18.01962653 79.07819387
rclavicle  0 -5.34481991e-014 2.981770104e-014
rhumerus  -35.18190002 -19.01399994 -70.79380035
rradius  -1.296506525e-006 2.359789448e-007 40.45920181
rwrist  -2.281664457e-008 -8.593936229e-009 12.48659992
rhand  -1.345748685e-031 10.2737999 9.996669769
rfingers  -90 -7.125020027 -90
rthumb  -72.52445805 -22.91766803 -51.04506765
rfemur  -11.34351158 -2.181319952 26.41150475
rtibia  9.670418422e-007 1.119611625e-006 37.0251236
rfoot  2.556521167e-006 -22.19701195 -5.892221451
rtoes  2.336001174 19.8686595 -96.84438506
lfemur  -30.62013054 -2.383132219 -18.3683815
ltibia  -3.641206786e-005 2.004581745e-007 17.3818531
lfoot  -5.693161143e-007 -5.000433922 -0.5777458549
ltoes  -5.298979543 -19.31302686 -105.6655569
